<svg width="115" height="115" viewBox="0 0 115 115" fill="none" xmlns="http://www.w3.org/2000/svg">
<path d="M57.2996 14.6131C58.5489 14.6131 59.5617 13.6003 59.5617 12.351V2.26204C59.5617 1.01276 58.5489 0 57.2996 0C56.0504 0 55.0376 1.01276 55.0376 2.26204V12.351C55.0378 13.6003 56.0506 14.6131 57.2996 14.6131Z" fill="#1B96DB"/>
<path d="M112.592 77.7115L108.596 73.7267C107.174 72.307 105.28 71.5249 103.261 71.5249C101.97 71.5249 100.731 71.8461 99.633 72.4478L92.1028 64.9265L92.4695 64.5602C95.5245 61.4992 95.5233 56.5252 92.4693 53.4746C91.3779 52.3812 90.0161 51.6521 88.5317 51.3453C88.7361 50.6398 88.8437 49.9008 88.8437 49.1446C88.8437 47.0433 88.0274 45.0731 86.55 43.6017C85.4584 42.5083 84.0968 41.7792 82.6123 41.4724C82.8167 40.7669 82.9243 40.0281 82.9243 39.2716C82.9243 37.1702 82.1081 35.2001 80.6281 33.7265C79.5105 32.6102 78.1365 31.9036 76.6939 31.6028C77.4656 28.9419 76.8062 25.948 74.7128 23.8511C72.9703 22.116 70.6058 21.3703 68.3272 21.6119L53.4053 18.7875C51.1295 18.3558 48.2875 18.0703 46.4936 19.7066C46.3804 19.8099 46.2649 19.9287 46.1513 20.061C43.3697 19.0471 40.1255 19.6509 37.898 21.8759C36.4203 23.3518 35.6063 25.3211 35.6063 27.4212C35.6063 28.1777 35.7134 28.9165 35.9176 29.6222C34.4347 29.9288 33.0747 30.657 31.987 31.7468C30.5063 33.2213 29.6899 35.1885 29.6883 37.2861C29.6876 38.0444 29.7952 38.7856 30.0005 39.4931C28.517 39.799 27.1561 40.5259 26.0649 41.6157C24.5843 43.0947 23.7689 45.0652 23.7689 47.1642C23.7689 48.7719 24.2489 50.3036 25.1384 51.5973C24.0153 51.978 22.9866 52.6116 22.1253 53.4721C19.0683 56.5252 19.0672 61.4994 22.1273 64.5649L22.4927 64.9288L14.9616 72.4462C12.1627 71.1284 8.71428 71.6221 6.40462 73.9289L2.40612 77.9161C0.983897 79.3366 0.200908 81.2314 0.200684 83.2513C0.200684 85.2714 0.983897 87.1664 2.40612 88.5871L7.39627 93.5712C8.28011 94.4541 9.71244 94.4532 10.5952 93.5694C11.4781 92.6855 11.4772 91.2532 10.5934 90.3705L5.60321 85.3864C5.03675 84.8206 4.72477 84.0623 4.72477 83.2515C4.72477 82.4409 5.03675 81.6828 5.60187 81.1184L9.60059 77.1309C10.5996 76.133 12.1288 75.9843 13.29 76.6785C13.3718 76.8014 13.4663 76.9182 13.5746 77.0267C13.7684 77.221 13.9897 77.3699 14.2246 77.4788L37.1557 100.376C37.2646 100.614 37.4142 100.837 37.6094 101.032C37.7994 101.223 38.0161 101.37 38.2461 101.478C38.7311 102.026 38.999 102.727 38.999 103.474C38.999 104.285 38.687 105.043 38.1206 105.608L34.1259 109.598C32.9456 110.774 31.0256 110.773 29.8489 109.602L24.8588 104.611C23.9754 103.728 22.5433 103.728 21.6599 104.611C20.7765 105.495 20.7765 106.927 21.6599 107.81L26.6536 112.804C28.1234 114.268 30.0537 115 31.9849 115C33.9166 115 35.8491 114.267 37.3208 112.802L41.3179 108.81C42.7401 107.389 43.5233 105.494 43.5233 103.474C43.5233 102.032 43.1224 100.655 42.3769 99.4678L50.8528 91.0023C50.8618 90.9931 50.8708 90.9839 50.88 90.9747C51.8505 89.9714 54.5532 90.1591 57.167 90.3406C59.0241 90.4698 61.0945 90.6133 63.1174 90.3801L72.3991 99.6509C71.7978 100.747 71.4769 101.985 71.4769 103.274C71.4769 105.292 72.2601 107.185 73.6823 108.606L77.6797 112.599C79.101 114.018 80.9956 114.8 83.0144 114.8C85.0329 114.8 86.9275 114.018 88.3491 112.599L112.594 88.3834C114.016 86.9629 114.799 85.0681 114.799 83.048C114.799 81.0281 114.016 79.1333 112.592 77.7115ZM52.563 23.2325L62.3755 25.0898L56.5022 30.9609C55.5936 30.5242 54.3484 29.7098 52.9823 28.403C51.1124 26.6142 49.7749 24.5489 49.6532 23.2608C49.6529 23.2601 49.6529 23.2595 49.6529 23.2588C49.6529 23.2586 49.6527 23.2583 49.6527 23.2581C49.6439 23.1656 49.6417 23.0917 49.6428 23.0353C49.9386 22.9634 50.7243 22.8837 52.563 23.2325ZM41.0949 25.0768C42.2408 23.9319 44.0211 23.7999 45.3159 24.6767C46.0497 27.7534 48.6743 30.542 49.8551 31.6718C50.7302 32.5091 53.538 35.0196 56.3721 35.7096C56.7555 36.2592 56.9642 36.9144 56.9642 37.6057C56.9642 38.4963 56.6217 39.3289 55.9975 39.9524C55.3751 40.5759 54.5411 40.9191 53.649 40.9191C52.7566 40.9191 51.9226 40.5759 51.2973 39.9495L51.2971 39.9493L51.2959 39.9482L41.0946 29.7653C40.4727 29.1442 40.1302 28.3116 40.1302 27.4212C40.1304 26.5307 40.4729 25.698 41.0949 25.0768ZM35.184 34.9477C35.8064 34.3244 36.6395 33.981 37.5303 33.981C38.4222 33.981 39.258 34.3251 39.8844 34.9508L48.0989 43.1488C49.3924 44.4444 49.3924 46.5526 48.1033 47.8436C47.4776 48.4669 46.6407 48.8101 45.747 48.8101C44.8533 48.8101 44.0164 48.4669 43.3933 47.8463L43.3931 47.8461L37.1613 41.6157C37.1516 41.606 37.1411 41.597 37.1312 41.5871L35.1816 39.6384C34.556 39.0136 34.2117 38.1794 34.2124 37.2895C34.2133 36.4025 34.5565 35.5725 35.184 34.9477ZM29.262 44.8166C29.8848 44.1946 30.7197 43.8521 31.6132 43.8521C32.4993 43.8521 33.327 44.1897 33.9471 44.8008L40.198 51.0488C40.8213 51.6696 41.1647 52.5014 41.1647 53.3908C41.1647 54.28 40.8213 55.1118 40.1955 55.7351C39.5729 56.3568 38.7389 56.6993 37.847 56.6993C36.9537 56.6993 36.1171 56.3559 35.4936 55.7351L33.2275 53.4717C33.227 53.471 33.2263 53.4705 33.2259 53.4701L29.2622 49.5111C28.6374 48.8869 28.2933 48.0532 28.2933 47.1637C28.2933 46.2745 28.6374 45.4405 29.262 44.8166ZM25.3223 56.6728C25.9479 56.0479 26.7839 55.7038 27.6763 55.7038C28.5684 55.7038 29.4042 56.0477 30.0295 56.6721L32.2987 58.9387C32.9222 59.5595 33.2654 60.3912 33.2654 61.2807C33.2654 62.1701 32.922 63.0016 32.294 63.6274C31.6716 64.2507 30.8376 64.5941 29.9455 64.5941C29.0531 64.5941 28.2191 64.2509 27.5922 63.6229L27.3081 63.3399C27.3043 63.3361 27.3014 63.332 27.2978 63.3284C27.2935 63.3244 27.289 63.3208 27.2848 63.3167L25.3246 61.3642C24.0311 60.068 24.0299 57.9636 25.3223 56.6728ZM71.4198 82.3811C70.5369 81.4971 69.1045 81.4964 68.2209 82.3791L66.2084 84.3891C64.2961 86.3015 60.8311 86.0607 57.4801 85.8282C53.8412 85.5753 50.0783 85.3143 47.6434 87.8142L39.3115 96.136L18.476 75.3311L25.8495 67.9709C27.0682 68.7179 28.4745 69.1184 29.9459 69.1184C32.048 69.1184 34.0192 68.3035 35.4915 66.8285C36.9737 65.3524 37.7902 63.3823 37.7902 61.2809C37.7902 61.2613 37.7888 61.242 37.7888 61.2225C37.8084 61.2227 37.8279 61.2238 37.8475 61.2238C39.9467 61.2238 41.9163 60.4114 43.3906 58.9389C44.8728 57.4627 45.6893 55.4925 45.6893 53.3913C45.6893 53.3717 45.6879 53.3524 45.6879 53.3329C45.7077 53.3329 45.7274 53.3342 45.7474 53.3342C47.8459 53.3342 49.8167 52.5227 51.3009 51.0445C52.8417 49.5012 53.6038 47.4694 53.5892 45.4419C53.6094 45.4421 53.6296 45.4432 53.6499 45.4432C55.752 45.443 57.7229 44.6283 59.1975 43.1511C60.6752 41.6752 61.4892 39.7058 61.4892 37.6057C61.4892 36.137 61.0898 34.733 60.3452 33.5167L66.8079 27.0567C67.2895 26.5772 67.8833 26.2762 68.5057 26.152C68.5731 26.1448 68.6396 26.134 68.7054 26.121C69.704 25.9833 70.7527 26.2915 71.5164 27.052C72.8099 28.3478 72.8099 30.4559 71.5211 31.747L69.5529 33.7072C69.5463 33.7137 69.5394 33.7195 69.5329 33.726L67.2659 35.9892C66.3818 36.8719 66.3809 38.3042 67.2639 39.1881C68.147 40.0721 69.5791 40.0728 70.4628 39.1901L72.4389 37.2167C72.4393 37.2162 72.4398 37.2158 72.4402 37.2153L72.739 36.9177C74.0361 35.6325 76.1375 35.6352 77.4333 36.9292C78.0568 37.55 78.4002 38.3817 78.4002 39.2712C78.4002 40.1604 78.0568 40.9921 77.4283 41.6179L75.4489 43.6014C75.4486 43.6017 75.4484 43.6019 75.4482 43.6023L73.1814 45.8599C72.2962 46.7415 72.2933 48.1738 73.1749 49.0588C74.0565 49.944 75.4886 49.9466 76.3738 49.0653L78.6509 46.7974C79.2733 46.1739 80.1073 45.8307 80.9994 45.8307C81.8918 45.8307 82.726 46.1739 83.3529 46.8019C83.9764 47.4229 84.3196 48.2547 84.3196 49.1441C84.3196 50.0333 83.9764 50.8651 83.3493 51.4895L79.4029 55.4374C78.5197 56.3211 78.52 57.7532 79.4033 58.6363C79.8451 59.0779 80.4237 59.2985 81.0026 59.2985C81.5816 59.2985 82.1606 59.0775 82.6022 58.6357L84.5363 56.7009C84.5473 56.6903 84.5592 56.6811 84.5703 56.6701C85.1926 56.0466 86.0266 55.7034 86.9188 55.7034C87.8111 55.7034 88.6451 56.0466 89.2698 56.6723C90.5619 57.9632 90.5608 60.0678 89.2698 61.3611L87.3033 63.3253C87.3026 63.326 87.3017 63.3266 87.301 63.3273C87.3004 63.328 87.2997 63.3289 87.299 63.3295L84.1779 66.4469C83.294 67.3298 83.2931 68.7622 84.1758 69.646C84.6176 70.0883 85.1971 70.3095 85.7764 70.3095C86.3548 70.3095 86.9334 70.0889 87.3749 69.648L88.9016 68.1232L96.2187 75.4317L75.3851 96.24L67.9204 88.7843C68.4408 88.4496 68.9388 88.0561 69.4062 87.5887L71.4176 85.5798C72.3019 84.6973 72.3028 83.265 71.4198 82.3811ZM109.396 85.1825L85.1518 109.398C84.5846 109.964 83.8254 110.276 83.0142 110.276C82.2029 110.276 81.4437 109.964 80.8763 109.397L76.879 105.405C76.3125 104.839 76.0005 104.082 76.0005 103.274C76.0005 102.465 76.3125 101.708 76.879 101.142L101.124 76.9272C101.691 76.3605 102.45 76.0485 103.261 76.0485C104.073 76.0485 104.832 76.3605 105.401 76.9285L109.397 80.9133C109.963 81.4791 110.275 82.2369 110.275 83.0478C110.275 83.8588 109.963 84.6169 109.396 85.1825Z" fill="#1B96DB"/>
<path d="M27.2628 12.7061C27.7044 13.1468 28.2825 13.3669 28.8607 13.3669C29.4401 13.3669 30.0199 13.1455 30.4617 12.7028C31.3442 11.8185 31.3428 10.3864 30.4585 9.50389L22.2158 1.27757C21.3317 0.39508 19.8994 0.396203 19.0169 1.28072C18.1344 2.165 18.1358 3.59711 19.0201 4.4796L27.2628 12.7061Z" fill="#1B96DB"/>
<path d="M85.7385 13.3669C86.3169 13.3669 86.8955 13.1464 87.3371 12.7054L95.5735 4.4789C96.4574 3.59619 96.4583 2.16386 95.5753 1.28002C94.6926 0.39618 93.2605 0.395281 92.3764 1.27822L84.14 9.50476C83.2562 10.3875 83.2553 11.8198 84.1382 12.7037C84.58 13.1459 85.1593 13.3669 85.7385 13.3669Z" fill="#1B96DB"/>
<path d="M14.1099 97.3017C13.2341 98.1925 13.2462 99.6248 14.1373 100.501L14.1438 100.507C14.5833 100.939 15.1541 101.154 15.7246 101.154C16.3101 101.154 16.8957 100.928 17.3393 100.476C18.215 99.5855 18.1995 98.15 17.3087 97.2743C16.4182 96.3985 14.9861 96.4109 14.1099 97.3017Z" fill="#1B96DB"/>
<path d="M76.9528 79.1225C77.2969 79.1225 77.646 79.0441 77.9737 78.879C79.0891 78.3164 79.5372 76.9561 78.9748 75.8407C78.4121 74.7253 77.0517 74.277 75.9365 74.8396L75.9239 74.8459C74.8085 75.4086 74.3667 76.7657 74.9291 77.8811C75.3262 78.669 76.1249 79.1225 76.9528 79.1225Z" fill="#1B96DB"/>
</svg>
