<svg width="110" height="110" viewBox="0 0 110 110" fill="none" xmlns="http://www.w3.org/2000/svg">
<g clip-path="url(#clip0)">
<path d="M63.3823 80.7821C63.3823 81.9688 62.4206 82.9305 61.2339 82.9305C60.0472 82.9305 59.0854 81.9688 59.0854 80.7821C59.0854 79.5954 60.0472 78.6337 61.2339 78.6337C62.4206 78.6337 63.3823 79.5954 63.3823 80.7821Z" fill="#1B96DB"/>
<path d="M26.4201 110H65.1012C66.2879 110 67.2497 109.038 67.2497 107.852V93.6727C67.2497 92.4877 68.2089 91.5243 69.3872 91.5243H82.277C85.837 91.5243 88.7332 88.6331 88.7332 85.079V68.5368H96.9997C99.4427 68.5368 101.646 67.1832 102.75 65.0037C103.854 62.825 103.642 60.2486 102.198 58.2797L88.7173 39.898C88.4185 19.3829 75.0327 4.67703 56.2037 0.893766C37.8202 -2.7997 18.3408 5.00853 10.6719 23.324C3.11625 41.3641 8.20368 52.4043 14.0943 65.1866C18.8645 75.5369 24.2708 87.2677 24.2717 105.587V107.852C24.2717 109.038 25.2334 110 26.4201 110ZM17.9975 63.389C12.305 51.0371 7.80924 41.2819 14.6347 24.9831C22.0804 7.20061 40.964 2.21472 55.3577 5.10672C68.767 7.80066 84.4254 18.7149 84.4254 40.608C84.4254 41.0654 84.5714 41.5102 84.8417 41.8786L98.7327 60.8209C99.2211 61.4873 99.2899 62.3248 98.9165 63.0625C98.543 63.8002 97.8263 64.24 96.9997 64.24H86.5848C85.3981 64.24 84.4363 65.2017 84.4363 66.3884V85.079C84.4363 86.264 83.4679 87.2274 82.277 87.2274H69.3872C65.8389 87.2274 62.9528 90.1186 62.9528 93.6727V105.703H28.5677V105.587C28.5669 86.3252 22.9515 74.1396 17.9975 63.389Z" fill="#1B96DB"/>
<path d="M67.6792 80.7821C67.6792 81.9688 68.641 82.9305 69.8268 82.9305H78.4206C79.6072 82.9305 80.569 81.9688 80.569 80.7821C80.569 79.5954 79.6072 78.6337 78.4206 78.6337H69.8268C68.641 78.6337 67.6792 79.5954 67.6792 80.7821Z" fill="#1B96DB"/>
<path d="M48.3433 42.7564H61.2339C62.4206 42.7564 63.3823 41.7947 63.3823 40.608C63.3823 39.4213 62.4206 38.4595 61.2339 38.4595H50.4917V27.7173C50.4917 26.5315 49.5299 25.5689 48.3433 25.5689C47.1566 25.5689 46.1948 26.5315 46.1948 27.7173V40.608C46.1948 41.7947 47.1566 42.7564 48.3433 42.7564Z" fill="#1B96DB"/>
<path d="M48.3429 66.3884C62.5587 66.3884 74.1233 54.8229 74.1233 40.608C74.1233 26.3922 62.5587 14.8276 48.3429 14.8276C34.128 14.8276 22.5625 26.3922 22.5625 40.608C22.5625 54.8229 34.128 66.3884 48.3429 66.3884ZM48.3429 19.1245C60.1895 19.1245 69.8265 28.7622 69.8265 40.608C69.8265 52.4538 60.1895 62.0915 48.3429 62.0915C36.4971 62.0915 26.8594 52.4538 26.8594 40.608C26.8594 28.7622 36.4971 19.1245 48.3429 19.1245Z" fill="#1B96DB"/>
</g>
<defs>
<clipPath id="clip0">
<rect width="110" height="110" fill="white"/>
</clipPath>
</defs>
</svg>
