<svg width="137" height="107" viewBox="0 0 137 107" fill="none" xmlns="http://www.w3.org/2000/svg">
<path d="M136.14 36.5023L132.572 30.3212C131.833 29.0417 130.198 28.6031 128.917 29.3419C127.637 30.0807 127.198 31.7171 127.937 32.9969L131.506 39.178C131.694 39.5039 131.652 39.8143 131.611 39.9703C131.569 40.1263 131.45 40.4164 131.124 40.6045L121.687 46.0527C121.188 46.3401 120.549 46.1686 120.261 45.6704L101.277 12.7898C100.989 12.291 101.16 11.651 101.659 11.3628L111.095 5.91485C111.594 5.62748 112.235 5.79819 112.522 6.29694L115.897 12.142C116.636 13.422 118.272 13.8606 119.552 13.1213C120.832 12.3825 121.27 10.7461 120.531 9.4663L117.157 3.62124C115.394 0.567465 111.475 -0.483282 108.42 1.28027L98.9832 6.72853C97.5496 7.55639 96.5577 8.85918 96.0908 10.3244H69.3392C65.5833 10.3244 62.0522 11.7869 59.396 14.4428L56.655 17.1838C54.2517 16.6109 51.7895 16.3164 49.3134 16.3164H41.007C40.592 14.7133 39.561 13.2706 38.0172 12.3791L28.5805 6.93081C27.1009 6.07646 25.3766 5.84983 23.7271 6.29185C22.077 6.73388 20.6976 7.79238 19.8436 9.27177L0.859752 42.1526C0.00566895 43.632 -0.221498 45.3557 0.220527 47.0061C0.662553 48.6564 1.72106 50.0355 3.20072 50.8896L12.6374 56.3378C13.6421 56.9179 14.7399 57.1935 15.8244 57.1935C16.2196 57.1935 16.6127 57.1553 16.999 57.0835L24.7227 64.8075C24.6044 65.4146 24.5432 66.0372 24.5432 66.6698C24.5432 69.2408 25.5444 71.6583 27.3625 73.4762C29.1033 75.2167 31.3504 76.1487 33.6341 76.2747C33.5991 76.6102 33.5801 76.949 33.5801 77.2909C33.5801 79.8623 34.5813 82.2795 36.3994 84.0974C38.2176 85.9155 40.6348 86.9168 43.2059 86.9168C43.2757 86.9168 43.3447 86.9133 43.4143 86.9117C43.4127 86.9812 43.4092 87.0503 43.4092 87.1201C43.4092 89.6915 44.4105 92.1087 46.2286 93.9266C48.0468 95.7447 50.464 96.7459 53.0351 96.7459C53.1049 96.7459 53.1739 96.7425 53.2435 96.7409C53.2419 96.8104 53.2384 96.8795 53.2384 96.9493C53.2384 99.5204 54.2397 101.938 56.0578 103.756C57.8759 105.574 60.2932 106.575 62.8642 106.575C65.4353 106.575 67.8528 105.574 69.6707 103.756L73.4771 99.9495C74.5932 98.8335 75.3745 97.5085 75.8269 96.1C77.518 97.348 79.5274 97.9722 81.5377 97.9719C84.0022 97.9717 86.4679 97.0336 88.3441 95.1571C89.4668 94.0344 90.2768 92.6829 90.7332 91.2083C92.2822 92.2211 94.0915 92.7658 95.9854 92.7658C98.5564 92.7658 100.974 91.7646 102.792 89.9465C104.143 88.5952 105.042 86.9133 105.415 85.0831C106.382 85.4031 107.403 85.572 108.45 85.572C111.021 85.572 113.439 84.5707 115.257 82.7523C119.01 78.9991 119.01 72.8924 115.257 69.1392L109.012 62.8941L120.411 51.4948C120.664 51.5251 120.919 51.5422 121.175 51.5422C122.26 51.5422 123.358 51.2666 124.362 50.6868L133.799 45.2388C135.278 44.3844 136.337 43.0054 136.779 41.355C137.221 39.7046 136.994 37.9817 136.14 36.5023ZM5.87615 46.2553C5.55025 46.0672 5.43145 45.7774 5.38971 45.6211C5.34797 45.4651 5.30596 45.1548 5.49433 44.8286L24.4781 11.9475C24.6662 11.6216 24.9563 11.5028 25.1123 11.461C25.1789 11.4434 25.2736 11.4254 25.3855 11.4254C25.5361 11.4254 25.7178 11.4578 25.9046 11.5654L35.3412 17.0136C35.8397 17.3015 36.0115 17.9416 35.7236 18.4403L16.7397 51.3212C16.4516 51.8196 15.8121 51.9914 15.3131 51.7035L5.87615 46.2553ZM29.8946 66.6695C29.8946 65.5275 30.3393 64.4543 31.1468 63.6468L33.4559 61.3376C34.2891 60.5042 35.3837 60.0875 36.4786 60.0875C37.573 60.0875 38.6679 60.5044 39.5011 61.3376C40.3086 62.1452 40.7533 63.2184 40.7533 64.3601C40.7533 65.5018 40.3086 66.5753 39.5011 67.3826L37.192 69.6917C35.5253 71.3587 32.8135 71.3584 31.1468 69.6917C30.3393 68.8847 29.8946 67.8112 29.8946 66.6695ZM43.2061 81.5654C42.0642 81.5654 40.9909 81.1207 40.1837 80.3134C39.3762 79.5061 38.9315 78.4327 38.9315 77.2909C38.9315 76.1492 39.3762 75.0757 40.1837 74.2685L43.9899 70.4623C44.8231 69.6291 45.9177 69.2125 47.0123 69.2125C48.1072 69.2125 49.2019 69.6291 50.0351 70.4623C50.8426 71.2696 51.2873 72.343 51.2873 73.4848C51.2873 74.6265 50.8426 75.7 50.0351 76.5072L46.2289 80.3134C45.4214 81.1209 44.3479 81.5654 43.2061 81.5654ZM53.0353 91.3948C51.8933 91.3948 50.8201 90.9501 50.0129 90.1428C49.2053 89.3356 48.7606 88.2621 48.7606 87.1204C48.7606 85.9787 49.2053 84.9052 50.0129 84.0976L53.819 80.2915C54.6522 79.4583 55.7469 79.0416 56.8415 79.0416C57.9361 79.0416 59.031 79.4583 59.8642 80.2917C60.6718 81.099 61.1165 82.1725 61.1165 83.3142C61.1165 84.4559 60.6718 85.5294 59.8642 86.3367L56.0581 90.1428C55.2508 90.9501 54.1773 91.3948 53.0353 91.3948ZM69.6934 96.1658L65.887 99.9723C65.0797 100.78 64.0065 101.224 62.8645 101.224C61.7225 101.224 60.6493 100.78 59.842 99.9723C59.0345 99.1648 58.5898 98.0915 58.5898 96.9498C58.5898 95.8078 59.0345 94.7346 59.842 93.9271L63.6482 90.1209C64.4814 89.2874 65.576 88.8708 66.6709 88.8708C67.7653 88.8708 68.8602 89.2877 69.6934 90.1206C71.3601 91.7871 71.3601 94.4992 69.6934 96.1658ZM111.473 78.9689C110.666 79.7764 109.593 80.2211 108.451 80.2211C107.309 80.2211 106.236 79.7764 105.428 78.9689L79.8886 53.4293C78.8438 52.3848 77.1501 52.3845 76.1044 53.4293C75.0595 54.4742 75.0595 56.1684 76.1044 57.2133L99.0084 80.1175C99.8159 80.9248 100.261 81.9983 100.261 83.14C100.261 84.2817 99.8159 85.3552 99.0084 86.1627C98.2011 86.97 97.1279 87.4147 95.9859 87.4147C94.8439 87.4147 93.7707 86.97 92.9634 86.1627L65.4409 58.6403C64.3961 57.5957 62.7018 57.5957 61.6567 58.6403C60.6118 59.6851 60.6118 61.3794 61.6567 62.4242L84.5607 85.3285C85.3682 86.1357 85.8129 87.2092 85.8129 88.3509C85.8129 89.4927 85.3682 90.5661 84.5607 91.3734C82.8942 93.0401 80.1824 93.0406 78.5155 91.3734L73.4782 86.3361C73.4712 86.3292 73.4635 86.3233 73.4565 86.3166C71.5295 84.4011 68.9876 83.4729 66.4628 83.5272C66.4644 83.4563 66.4679 83.3856 66.4679 83.3142C66.4679 80.7431 65.4666 78.3256 63.6485 76.5075C61.719 74.578 59.1675 73.6434 56.6333 73.6977C56.6349 73.6268 56.6384 73.5562 56.6384 73.485C56.6384 70.9137 55.6372 68.4965 53.819 66.6783C51.709 64.5683 48.8548 63.6449 46.0935 63.9074C45.983 61.5065 44.9959 59.2648 43.2851 57.5539C39.5319 53.8007 33.4249 53.8015 29.6717 57.5539L27.3625 59.8631C27.3599 59.8657 27.3572 59.8687 27.3545 59.8714L21.4129 53.9297L40.0392 21.6677H49.3132C50.2218 21.6677 51.1281 21.7159 52.0293 21.8096L48.9707 24.8681C47.1525 26.6863 46.1513 29.1038 46.1513 31.6749C46.1513 34.2462 47.1525 36.6634 48.9707 38.4816C50.8474 40.358 53.3125 41.2964 55.7771 41.2964C58.2422 41.2964 60.7074 40.3583 62.5838 38.4816L69.8071 31.2582L111.473 72.9239C113.14 74.5904 113.14 77.3024 111.473 78.9689ZM85.7658 39.6482C89.6595 36.8301 92.0462 32.2825 92.0462 27.3418C92.0462 25.864 90.848 24.6661 89.3705 24.6661C87.893 24.6661 86.6948 25.864 86.6948 27.3418C86.6948 30.8371 84.8486 34.0252 81.9029 35.7855L71.7117 25.5943C70.6666 24.5495 68.9753 24.5222 67.9301 25.567L58.7998 34.6973C57.1332 36.364 54.4213 36.3637 52.7546 34.6973C51.9471 33.8901 51.5024 32.8166 51.5024 31.6749C51.5024 30.5331 51.9471 29.4596 52.7546 28.6521L63.18 18.2268C64.825 16.5818 67.0124 15.6758 69.3392 15.6758H96.7637L115.626 48.3466C115.671 48.4239 115.719 48.4975 115.767 48.5722L105.228 59.1106L85.7658 39.6482Z" fill="#1B96DB"/>
</svg>
