<svg width="132" height="132" viewBox="0 0 132 132" fill="none" xmlns="http://www.w3.org/2000/svg">
<path d="M66 32.4844C64.577 32.4844 63.4219 33.6395 63.4219 35.0625C63.4219 36.4855 64.577 37.6406 66 37.6406C67.423 37.6406 68.5781 36.4855 68.5781 35.0625C68.5781 33.6395 67.423 32.4844 66 32.4844Z" fill="#1B96DB"/>
<path d="M23.2031 78.8906C24.6261 78.8906 25.7812 77.7355 25.7812 76.3125C25.7812 74.8895 24.6261 73.7344 23.2031 73.7344C21.7801 73.7344 20.625 74.8895 20.625 76.3125C20.625 77.7355 21.7801 78.8906 23.2031 78.8906Z" fill="#1B96DB"/>
<path d="M86.625 6.70312C63.4148 6.70312 44.3649 22.7056 42.8915 42.8623C20.7871 43.9711 0 59.9102 0 81.4688C0 90.4781 3.56506 99.2075 10.0547 106.124C11.3387 111.417 9.77975 117.028 5.91156 120.896C5.17438 121.633 4.95383 122.742 5.35263 123.706C5.75143 124.668 6.69104 125.297 7.73438 125.297C15.0871 125.297 22.1729 122.414 27.4379 117.333C32.567 119.081 39.259 120.141 45.375 120.141C68.5822 120.141 87.6301 104.142 89.1075 83.9895C94.5054 83.7498 100.12 82.7528 104.562 81.2391C109.827 86.3199 116.913 89.2031 124.266 89.2031C125.309 89.2031 126.249 88.5747 126.647 87.6119C127.046 86.6482 126.826 85.5394 126.088 84.8022C122.22 80.934 120.661 75.3235 121.945 70.0303C128.435 63.1137 132 54.3843 132 45.375C132 22.9745 109.612 6.70312 86.625 6.70312ZM45.375 114.984C39.2902 114.984 32.3565 113.79 27.7118 111.942C26.7168 111.545 25.5798 111.806 24.8557 112.597C21.7429 116 17.6954 118.372 13.2854 119.463C15.7155 114.807 16.3358 109.319 14.8575 104.118C14.7406 103.708 14.5241 103.333 14.227 103.028C8.3779 97.004 5.15625 89.3471 5.15625 81.4688C5.15625 63.301 23.5737 47.9531 45.375 47.9531C65.9617 47.9531 84.0469 62.2688 84.0469 81.4688C84.0469 99.9497 66.6989 114.984 45.375 114.984ZM117.773 66.9346C117.476 67.2407 117.259 67.6154 117.143 68.0242C115.664 73.2248 116.285 78.7134 118.715 83.3691C114.305 82.2794 110.257 79.9058 107.144 76.5028C106.42 75.7133 105.283 75.4514 104.288 75.8482C100.263 77.4495 94.5205 78.5583 89.0994 78.8262C88.3461 69.0766 83.4829 59.9132 75.1685 53.1094H108.797C110.221 53.1094 111.375 51.9553 111.375 50.5312C111.375 49.1072 110.221 47.9531 108.797 47.9531H67.2478C61.3956 44.9742 54.8244 43.237 48.0609 42.8724C49.5423 25.5567 66.2729 11.8594 86.625 11.8594C108.426 11.8594 126.844 27.2073 126.844 45.375C126.844 53.2534 123.622 60.9102 117.773 66.9346Z" fill="#1B96DB"/>
<path d="M66 73.7344H33.5156C32.0916 73.7344 30.9375 74.8885 30.9375 76.3125C30.9375 77.7365 32.0916 78.8906 33.5156 78.8906H66C67.424 78.8906 68.5781 77.7365 68.5781 76.3125C68.5781 74.8885 67.424 73.7344 66 73.7344Z" fill="#1B96DB"/>
<path d="M66 89.2031H23.2031C21.7791 89.2031 20.625 90.3572 20.625 91.7812C20.625 93.2053 21.7791 94.3594 23.2031 94.3594H66C67.424 94.3594 68.5781 93.2053 68.5781 91.7812C68.5781 90.3572 67.424 89.2031 66 89.2031Z" fill="#1B96DB"/>
<path d="M108.797 32.4844H76.3125C74.8885 32.4844 73.7344 33.6385 73.7344 35.0625C73.7344 36.4865 74.8885 37.6406 76.3125 37.6406H108.797C110.221 37.6406 111.375 36.4865 111.375 35.0625C111.375 33.6385 110.221 32.4844 108.797 32.4844Z" fill="#1B96DB"/>
</svg>
